<?xml version="1.0" standalone="no"?>
<!DOCTYPE svg PUBLIC "-//W3C//DTD SVG 20010904//EN"
 "http://www.w3.org/TR/2001/REC-SVG-20010904/DTD/svg10.dtd">
<svg version="1.0" xmlns="http://www.w3.org/2000/svg"
 width="859.000000pt" height="388.000000pt" viewBox="0 0 859.000000 388.000000"
 preserveAspectRatio="xMidYMid meet">

<g transform="translate(0.000000,388.000000) scale(0.100000,-0.100000)"
fill="#0a02a2" stroke="none">
<path d="M1978 3688 c-21 -5 -38 -16 -38 -23 0 -9 10 -8 37 6 27 14 48 17 73
13 43 -8 87 -29 93 -46 4 -9 6 -9 6 -1 2 19 -57 55 -97 58 -20 2 -54 -1 -74
-7z"/>
<path d="M1892 3648 c-25 -28 -42 -70 -42 -108 0 -21 11 -38 44 -67 45 -38 49
-48 47 -92 -1 -18 -5 -22 -21 -18 -26 7 -25 -5 4 -51 14 -20 32 -55 41 -78 11
-28 26 -46 49 -57 33 -15 34 -15 40 6 3 12 6 32 6 44 0 12 11 35 25 51 22 26
23 31 9 50 -12 18 -19 20 -41 11 -18 -6 -30 -6 -39 2 -23 19 -6 29 49 29 36 1
47 3 37 10 -19 11 -110 8 -110 -3 0 -22 -19 7 -24 37 -5 25 -16 40 -42 55 -39
23 -39 31 -4 104 10 21 13 36 7 34 -6 -2 -18 -18 -26 -35 -9 -17 -19 -32 -23
-32 -12 0 -9 28 3 36 8 4 7 9 -2 15 -11 6 -6 16 21 44 18 19 29 35 24 35 -6 0
-20 -10 -32 -22z"/>
<path d="M2162 3565 c0 -16 2 -22 5 -12 2 9 2 23 0 30 -3 6 -5 -1 -5 -18z"/>
<path d="M2000 3572 c24 -8 24 -8 -15 -24 l-40 -17 50 -1 c40 -1 46 -3 28 -10
-28 -11 -29 -20 -3 -20 10 0 29 10 40 23 21 21 22 21 35 3 8 -10 28 -20 45
-21 28 -2 29 -1 13 10 -10 7 -14 17 -10 22 8 7 -69 29 -138 38 -27 4 -27 4 -5
-3z"/>
<path d="M1838 3483 c6 -2 12 -17 13 -31 0 -24 1 -25 8 -7 9 21 -4 46 -23 44
-7 0 -6 -2 2 -6z"/>
<path d="M2064 3455 c17 -17 46 -17 49 0 1 6 -13 11 -32 13 -31 3 -33 2 -17
-13z"/>
<path d="M2030 3419 c-18 -4 -9 -7 32 -10 31 -2 54 -1 52 2 -6 11 -57 15 -84
8z"/>
<path d="M1875 3390 c3 -5 8 -10 11 -10 2 0 4 5 4 10 0 6 -5 10 -11 10 -5 0
-7 -4 -4 -10z"/>
<path d="M1872 3260 c0 -14 2 -19 5 -12 2 6 2 18 0 25 -3 6 -5 1 -5 -13z"/>
<path d="M1400 3224 c-542 -179 -938 -635 -1056 -1213 -22 -105 -26 -154 -26
-296 -1 -170 6 -226 43 -384 32 -132 142 -386 172 -396 30 -9 147 -12 147 -3
0 5 -11 24 -24 41 -79 105 -167 319 -207 503 -32 145 -32 406 0 553 61 280
187 530 375 744 146 165 313 290 544 406 78 39 142 74 142 76 0 6 12 10 -110
-31z"/>
<path d="M1630 3230 c-11 -7 -6 -8 17 -4 57 11 95 -3 128 -47 30 -40 44 -112
21 -103 -8 3 -10 -11 -8 -41 3 -28 0 -45 -7 -45 -6 0 -11 14 -11 31 0 80 -58
133 -147 132 -62 0 -117 -32 -133 -77 -11 -32 -12 -92 -2 -118 8 -19 8 -18 45
73 17 42 72 73 112 63 28 -7 44 -31 29 -43 -18 -13 -69 -74 -56 -67 16 9 62
-1 62 -13 0 -5 -16 -47 -35 -93 -36 -86 -95 -165 -115 -153 -5 3 -10 2 -10 -4
0 -5 5 -13 10 -16 6 -3 10 -15 10 -26 0 -11 -4 -18 -9 -15 -4 3 -8 -39 -7 -94
0 -54 3 -97 5 -95 2 3 6 30 10 61 4 36 11 59 20 62 23 8 9 -107 -16 -127 -25
-21 -35 -57 -18 -71 9 -8 17 -1 30 27 19 40 25 72 28 169 2 53 8 69 43 122
l41 61 37 -72 c20 -40 51 -88 69 -108 l32 -36 118 -1 c76 0 117 3 117 10 0 16
72 1 82 -17 5 -8 20 -15 33 -15 13 0 27 -5 31 -11 3 -6 20 -9 36 -7 33 5 36 1
41 -57 2 -22 6 -45 9 -50 3 -6 8 -21 11 -35 5 -22 25 -48 109 -149 10 -12 14
-9 20 17 5 18 12 32 17 32 5 0 2 15 -7 34 -11 25 -20 32 -34 28 -13 -3 -17 0
-12 11 3 8 1 18 -5 22 -16 9 -13 28 3 22 19 -7 11 214 -10 301 -15 58 -14 107
3 167 5 17 2 16 -15 -5 l-21 -25 -1 34 c0 19 -3 31 -7 27 -4 -4 -6 -41 -4 -82
2 -46 -1 -74 -8 -74 -5 0 -9 17 -8 38 1 44 -21 105 -35 96 -6 -4 -21 6 -35 22
-71 84 -107 116 -185 170 l-53 36 39 -34 c85 -71 96 -84 101 -117 5 -31 4 -33
-17 -27 -60 17 -105 17 -141 2 -41 -17 -60 -13 -97 18 l-25 21 25 -28 c56 -65
76 -72 185 -69 95 2 101 1 128 -23 42 -39 32 -47 -25 -20 -29 14 -61 25 -70
25 -34 0 -108 -24 -104 -35 2 -5 10 -8 17 -6 8 2 22 3 32 3 9 0 15 2 13 6 -2
4 21 5 52 2 96 -9 172 -73 172 -145 l0 -30 -20 25 c-11 14 -20 20 -20 14 0 -5
7 -19 15 -30 17 -22 20 -60 5 -69 -5 -3 -15 5 -21 19 -17 36 -114 107 -136 99
-10 -4 -21 -11 -25 -17 -4 -6 -9 -4 -14 7 -11 29 -29 20 -102 -53 -77 -75
-102 -81 -46 -11 19 24 34 46 34 48 0 2 -12 0 -26 -3 -24 -6 -25 -5 -15 15 21
38 5 22 -34 -34 -20 -30 -41 -55 -46 -55 -12 0 -11 6 6 40 11 20 12 31 4 36
-6 3 -15 1 -19 -6 -5 -9 -9 -9 -15 -1 -3 6 4 20 17 31 19 16 21 21 8 29 -8 6
-19 6 -25 1 -16 -14 -41 48 -28 70 7 10 7 22 2 33 -7 12 -2 25 20 49 l29 32
36 -27 c20 -16 36 -32 36 -38 0 -5 7 -9 15 -9 8 0 15 -4 15 -10 0 -5 6 -10 13
-10 6 0 -2 13 -18 28 -17 15 -45 44 -63 65 -17 21 -32 34 -32 29 0 -9 -57 -72
-65 -72 -2 0 12 27 32 60 26 45 34 66 29 86 -5 17 -3 23 4 19 5 -3 10 -1 10 4
0 6 -4 11 -10 11 -5 0 -9 17 -9 38 l2 37 7 -35 7 -35 2 31 c2 56 -44 121 -102
143 -35 14 -87 14 -107 1z m506 -584 c0 -29 -2 -32 -13 -20 -15 14 -44 6 -58
-16 -4 -6 -11 -7 -17 -4 -13 8 62 83 77 78 6 -3 10 -19 11 -38z"/>
<path d="M1798 3220 c11 -11 27 -29 36 -41 9 -14 21 -19 31 -15 14 5 11 11
-16 35 -17 16 -41 32 -52 35 -19 5 -19 4 1 -14z"/>
<path d="M1948 3174 c23 -14 48 -24 54 -22 6 2 -10 14 -35 26 -63 29 -72 28
-19 -4z"/>
<path d="M2686 3087 c-11 -61 -21 -118 -24 -124 -2 -7 0 -13 6 -13 5 0 12 15
15 33 2 17 12 70 21 116 10 46 13 88 9 92 -5 5 -17 -41 -27 -104z"/>
<path d="M1891 3156 c2 -2 15 -9 29 -15 24 -11 24 -11 6 3 -16 13 -49 24 -35
12z"/>
<path d="M2662 3140 c0 -14 2 -19 5 -12 2 6 2 18 0 25 -3 6 -5 1 -5 -13z"/>
<path d="M2105 3129 c25 -30 37 -39 53 -39 23 0 12 15 -31 39 l-42 24 20 -24z"/>
<path d="M1960 3116 c0 -2 7 -7 16 -10 8 -3 12 -2 9 4 -6 10 -25 14 -25 6z"/>
<path d="M2642 3030 c0 -14 2 -19 5 -12 2 6 2 18 0 25 -3 6 -5 1 -5 -13z"/>
<path d="M2632 2970 c0 -14 2 -19 5 -12 2 6 2 18 0 25 -3 6 -5 1 -5 -13z"/>
<path d="M2240 2931 c0 -6 4 -13 10 -16 6 -3 7 1 4 9 -7 18 -14 21 -14 7z"/>
<path d="M2622 2915 c0 -16 2 -22 5 -12 2 9 2 23 0 30 -3 6 -5 -1 -5 -18z"/>
<path d="M2655 2918 c-3 -13 -7 -37 -8 -53 -2 -17 -6 -36 -10 -42 -4 -7 -3
-14 3 -18 12 -7 17 5 23 60 3 22 8 48 12 58 4 10 3 17 -4 17 -6 0 -13 -10 -16
-22z"/>
<path d="M2611 2864 c0 -11 3 -14 6 -6 3 7 2 16 -1 19 -3 4 -6 -2 -5 -13z"/>
<path d="M3263 2866 c-228 -58 -375 -261 -361 -501 18 -303 280 -499 597 -445
235 40 361 201 361 466 l0 84 -237 -2 -238 -3 0 -100 0 -100 95 -1 c111 -1
123 -12 66 -62 -65 -56 -170 -66 -253 -24 -73 38 -113 103 -121 197 -16 210
222 335 370 194 l39 -37 72 35 c40 19 91 43 115 54 23 11 42 25 42 32 0 23
-75 110 -123 143 -80 55 -149 76 -267 80 -66 2 -124 -1 -157 -10z"/>
<path d="M2597 2810 c-3 -11 -1 -20 4 -20 5 0 9 9 9 20 0 11 -2 20 -4 20 -2 0
-6 -9 -9 -20z"/>
<path d="M2048 2783 c7 -3 16 -2 19 1 4 3 -2 6 -13 5 -11 0 -14 -3 -6 -6z"/>
<path d="M2630 2764 c-6 -14 -10 -37 -10 -51 0 -14 -4 -42 -10 -62 -5 -20 -16
-79 -25 -131 -17 -100 -43 -233 -52 -262 -3 -13 0 -16 11 -12 9 3 14 9 12 13
-4 6 6 69 44 266 28 148 47 265 43 265 -2 0 -8 -12 -13 -26z"/>
<path d="M2570 2660 c-12 -67 -20 -123 -18 -126 3 -2 15 51 27 117 12 67 20
123 18 125 -2 3 -14 -50 -27 -116z"/>
<path d="M2177 2739 c7 -7 15 -10 18 -7 3 3 -2 9 -12 12 -14 6 -15 5 -6 -5z"/>
<path d="M1405 2680 c-3 -5 -1 -10 4 -10 6 0 11 5 11 10 0 6 -2 10 -4 10 -3 0
-8 -4 -11 -10z"/>
<path d="M1406 2629 c-3 -17 -2 -38 4 -47 7 -13 9 -5 10 31 0 54 -5 60 -14 16z"/>
<path d="M4295 2565 c-35 -9 -60 -25 -87 -54 l-38 -40 0 44 0 45 -115 0 -115
0 0 -315 0 -315 115 0 115 0 0 153 c0 129 3 158 20 195 24 53 71 76 142 70
l48 -5 0 118 c0 134 5 128 -85 104z"/>
<path d="M4639 2562 c-240 -80 -315 -355 -148 -537 24 -26 66 -59 94 -73 45
-24 61 -27 160 -27 134 0 189 20 260 96 67 72 89 127 89 224 0 96 -29 170 -92
233 -89 89 -242 124 -363 84z m188 -226 c33 -30 37 -38 37 -85 0 -91 -70 -145
-151 -118 -128 42 -96 236 40 237 29 0 46 -8 74 -34z"/>
<path d="M6249 2565 c-25 -8 -54 -24 -64 -35 -24 -27 -35 -25 -35 5 l0 25
-120 0 -120 0 2 -457 3 -458 120 0 120 0 0 168 c0 92 1 167 1 167 1 0 28 -13
59 -30 138 -73 302 -14 375 135 21 44 24 64 25 160 0 100 -2 115 -28 166 -15
31 -40 69 -55 84 -69 69 -191 100 -283 70z m98 -228 c34 -33 43 -107 19 -152
-21 -38 -53 -55 -105 -55 -106 0 -148 137 -64 210 32 29 41 32 81 27 29 -3 53
-13 69 -30z"/>
<path d="M6889 2562 c-31 -11 -73 -32 -93 -47 -154 -117 -167 -377 -27 -508
68 -64 124 -82 251 -82 94 0 110 3 155 27 55 28 115 84 115 105 0 7 -37 32
-83 54 l-83 42 -28 -26 c-31 -29 -82 -43 -115 -32 -33 10 -81 55 -81 76 0 18
12 19 213 21 l212 3 3 35 c5 49 -15 145 -40 188 -31 58 -86 109 -142 133 -71
31 -182 35 -257 11z m172 -175 c15 -11 39 -49 39 -61 0 -3 -45 -6 -100 -6 -65
0 -100 4 -100 11 0 6 13 24 29 40 24 23 38 29 73 29 24 0 50 -6 59 -13z"/>
<path d="M5163 2328 c5 -255 11 -289 61 -340 47 -47 101 -68 176 -68 64 0 139
24 154 49 12 19 26 12 26 -14 l0 -25 120 0 120 0 0 315 0 315 -120 0 -120 0 0
-170 c0 -182 -9 -228 -48 -249 -34 -18 -87 -13 -108 10 -17 19 -19 41 -22 215
l-3 194 -121 0 -120 0 5 -232z"/>
<path d="M1380 2480 c0 -35 3 -60 7 -56 7 7 5 108 -3 115 -2 2 -4 -24 -4 -59z"/>
<path d="M1890 2530 c-9 -6 -10 -10 -3 -10 6 0 15 5 18 10 8 12 4 12 -15 0z"/>
<path d="M2000 2510 c0 -5 7 -10 16 -10 8 0 12 5 9 10 -3 6 -10 10 -16 10 -5
0 -9 -4 -9 -10z"/>
<path d="M2525 2423 c-10 -54 -24 -118 -32 -142 -13 -42 -10 -68 6 -43 10 17
55 272 48 278 -2 2 -12 -39 -22 -93z"/>
<path d="M1740 2483 c0 -13 5 -23 11 -23 5 0 7 -5 3 -12 -5 -8 -2 -9 12 -4 30
12 109 25 114 19 3 -3 -4 -10 -15 -17 -31 -17 -150 -137 -179 -180 -14 -22
-26 -48 -26 -60 -1 -18 -2 -19 -10 -5 -15 26 15 111 55 154 20 20 33 40 30 43
-3 3 -10 1 -16 -5 -6 -6 -17 -9 -24 -7 -7 3 -20 -5 -29 -18 -46 -65 -71 -249
-35 -256 11 -2 18 7 23 30 20 101 165 288 223 288 29 0 9 -35 -66 -113 -78
-81 -131 -164 -131 -205 0 -12 -4 -24 -10 -27 -5 -3 -10 -11 -10 -16 0 -6 4
-8 9 -5 5 3 12 -4 16 -17 5 -16 8 -18 12 -7 3 8 16 38 29 66 26 54 29 74 15
74 -15 0 -7 27 18 60 12 17 27 28 33 24 7 -4 8 -3 4 4 -4 7 -3 12 3 12 18 0
72 62 103 121 18 32 38 59 45 59 20 0 16 -55 -7 -100 -11 -22 -16 -40 -10 -40
6 0 27 36 47 81 35 75 39 80 65 77 15 -3 25 0 22 4 -3 5 -37 7 -74 4 -38 -2
-71 -1 -75 2 -12 12 -76 8 -71 -4 3 -8 -6 -9 -32 -3 -24 5 -39 4 -43 -3 -4 -6
-11 -3 -18 8 -10 18 -10 18 -11 -3z"/>
<path d="M2091 2487 c-10 -13 -9 -21 10 -46 16 -21 26 -28 34 -21 7 5 14 8 17
5 3 -3 11 1 18 10 9 11 9 15 1 15 -7 0 -9 5 -6 10 3 6 1 10 -4 10 -6 0 -11 -6
-11 -12 0 -8 -7 -5 -15 6 -8 11 -15 16 -16 10 0 -5 -4 -1 -8 9 -6 17 -8 17
-20 4z"/>
<path d="M2187 2438 c-15 -12 -14 -15 7 -33 30 -25 43 -28 49 -11 6 14 -18 56
-32 56 -4 0 -15 -6 -24 -12z"/>
<path d="M2073 2404 c-7 -7 -13 -19 -13 -26 0 -9 3 -9 10 2 18 28 11 -72 -10
-145 -11 -39 -22 -79 -24 -90 -12 -59 -45 -183 -54 -205 -6 -14 -16 -50 -22
-80 -6 -30 -15 -57 -21 -61 -6 -3 -41 4 -77 16 -37 12 -82 26 -99 30 -37 7
-48 19 -36 38 4 6 13 28 18 47 9 30 16 35 43 38 26 3 32 8 32 27 0 24 37 132
85 243 14 35 24 67 20 70 -11 11 -31 -24 -59 -106 -15 -42 -34 -89 -42 -104
-8 -14 -14 -33 -14 -41 0 -16 -18 -33 -26 -25 -2 3 3 25 12 49 19 53 55 192
50 196 -3 3 -52 -147 -77 -237 -16 -56 -14 -52 -23 -72 -5 -10 -12 -16 -16
-13 -5 3 -12 -5 -16 -17 -7 -22 -8 -22 -18 8 l-11 31 -25 -23 c-21 -20 -22
-24 -7 -24 20 0 37 -37 37 -81 0 -26 -16 -42 -57 -54 -1 0 -5 -13 -9 -29 l-7
-29 33 19 c18 10 41 33 51 49 17 26 19 27 19 9 0 -12 -13 -62 -30 -112 -16
-50 -30 -98 -30 -107 0 -19 -7 -19 -26 0 -14 13 -14 15 0 15 9 0 16 5 16 10 0
13 -3 13 -34 -1 -14 -7 -23 -16 -20 -21 3 -5 0 -7 -7 -6 -7 2 -14 -4 -16 -13
-3 -11 9 -21 37 -32 35 -13 40 -20 40 -46 0 -26 6 -33 36 -46 20 -8 52 -15 70
-15 19 0 34 -4 34 -10 0 -5 -25 -10 -57 -10 l-56 0 19 -21 c24 -27 74 -49 114
-49 34 0 40 -15 9 -25 -33 -11 -90 4 -137 36 -39 26 -43 27 -37 9 4 -11 22
-37 41 -58 19 -20 34 -40 34 -44 0 -14 -33 -8 -53 9 -18 17 -19 17 -15 -12 2
-24 12 -34 53 -55 28 -14 51 -28 53 -31 1 -3 22 -3 45 2 55 11 57 11 57 0 0
-4 -17 -15 -37 -24 -33 -14 -34 -15 -8 -10 27 6 29 5 16 -10 -17 -22 -93 -23
-150 -2 -42 14 -42 14 -35 -8 4 -12 10 -24 15 -27 23 -15 29 -64 14 -115 -8
-29 -15 -73 -16 -97 l-1 -43 -13 30 c-8 17 -15 53 -16 80 -2 43 -3 45 -6 13
-4 -36 6 -97 47 -292 12 -55 21 -125 21 -156 l1 -57 75 -36 c57 -27 73 -32 67
-19 -4 9 -9 72 -12 139 -3 98 0 148 18 250 17 99 21 146 16 209 -5 63 -4 85 7
96 27 26 36 55 32 101 -2 26 0 47 4 47 4 0 17 33 29 73 l21 72 72 -3 c39 -2
86 -1 104 2 31 6 33 9 41 67 9 60 10 61 49 75 68 23 155 -8 155 -57 0 -9 7
-22 15 -29 13 -11 18 -10 30 6 8 10 15 22 15 26 0 3 29 23 65 42 56 32 92 66
120 114 6 12 3 12 -15 2 -30 -16 -35 -7 -15 24 16 25 16 26 -1 26 -24 0 -63
-34 -97 -85 -16 -24 -27 -33 -27 -23 0 24 -25 12 -39 -18 -13 -29 -31 -23 -31
10 0 14 10 30 24 40 32 20 76 65 76 76 0 4 3 15 6 24 6 16 -9 16 -86 0 -31 -7
-34 -6 -22 9 8 9 36 27 63 41 l50 25 -43 6 c-42 6 -102 2 -139 -10 -31 -10
-22 9 25 56 51 49 53 64 4 27 -18 -14 -44 -30 -56 -37 -21 -11 -23 -11 -15 2
12 21 64 63 114 92 38 22 40 25 14 19 -52 -12 -113 -42 -124 -61 -9 -17 -11
-17 -26 -1 -8 10 -12 16 -9 13 8 -5 34 20 34 34 0 6 3 11 8 11 4 0 16 13 26
27 21 28 22 28 -28 7 -18 -7 -11 28 13 66 14 23 13 23 -17 -4 -38 -35 -48 -30
-33 17 15 43 50 77 93 87 l33 8 -31 1 c-17 1 -45 -6 -62 -14 -26 -13 -35 -29
-57 -94 -14 -43 -32 -87 -40 -97 -21 -29 -31 -7 -13 29 15 31 38 134 38 172 0
24 -46 -63 -59 -112 -6 -21 -20 -81 -32 -133 -12 -52 -25 -102 -30 -110 -4 -8
-6 59 -4 150 3 117 1 148 -5 105 -4 -33 -15 -103 -24 -155 -9 -52 -23 -147
-32 -210 -9 -63 -21 -119 -25 -124 -10 -11 -39 8 -101 67 -67 62 -66 92 4 138
56 37 75 72 108 204 10 39 25 88 33 110 27 70 49 197 45 271 -2 58 -5 69 -15
58z"/>
<path d="M2452 2400 c0 -14 2 -19 5 -12 2 6 2 18 0 25 -3 6 -5 1 -5 -13z"/>
<path d="M2135 2404 c-6 -3 -8 -24 -5 -52 l4 -47 6 50 6 50 13 -30 c7 -16 13
-60 14 -96 1 -45 6 -66 15 -66 17 0 15 59 -4 128 -16 55 -27 70 -49 63z"/>
<path d="M1522 2360 c-8 -13 -8 -20 -2 -20 6 0 13 7 17 15 9 24 -1 27 -15 5z"/>
<path d="M2042 2332 c-11 -25 -11 -25 4 -10 9 9 15 21 13 27 -2 6 -10 -2 -17
-17z"/>
<path d="M1393 2300 c0 -25 2 -35 4 -22 2 12 2 32 0 45 -2 12 -4 2 -4 -23z"/>
<path d="M1481 2308 l1 -33 8 30 c7 29 8 29 9 -10 1 -30 4 -36 11 -25 15 23
12 57 -6 64 -24 9 -24 8 -23 -26z"/>
<path d="M1480 2256 c0 -4 7 -14 15 -22 8 -9 15 -11 15 -6 0 5 -7 15 -15 22
-8 7 -15 9 -15 6z"/>
<path d="M2274 2237 c3 -10 6 -25 6 -33 0 -9 5 -12 10 -9 14 9 13 18 -6 41
-14 17 -15 17 -10 1z"/>
<path d="M1995 2214 c-9 -15 -12 -23 -6 -20 11 7 35 46 28 46 -3 0 -12 -12
-22 -26z"/>
<path d="M2423 2220 c-13 -20 -4 -62 16 -75 6 -3 11 -14 11 -24 0 -10 7 -24
15 -31 22 -18 11 -24 -43 -23 l-47 1 45 -7 c25 -4 49 -3 55 1 16 14 38 9 32
-7 -4 -8 -2 -17 2 -20 5 -2 11 4 14 15 3 11 12 20 21 20 9 0 16 6 16 14 0 7 7
27 15 42 22 42 20 57 -5 44 -27 -15 -92 -9 -98 9 -3 10 3 12 29 9 37 -6 89 8
89 24 0 5 -4 7 -8 4 -5 -3 -28 -6 -53 -7 -24 -1 -50 -7 -57 -12 -16 -13 -33 8
-25 30 8 20 -11 15 -24 -7z m105 -85 c11 -11 -9 -16 -37 -10 -42 9 -41 29 1
21 17 -3 34 -8 36 -11z m-24 -24 c14 -5 16 -10 8 -15 -15 -9 -52 2 -52 15 0
11 17 11 44 0z"/>
<path d="M1492 2130 c14 -22 24 -19 15 5 -4 8 -11 15 -17 15 -6 0 -6 -7 2 -20z"/>
<path d="M1952 2083 c-18 -36 -32 -67 -29 -69 6 -6 69 115 65 125 -2 5 -18
-20 -36 -56z"/>
<path d="M1408 2133 c-10 -2 -18 -9 -18 -14 0 -6 10 -5 23 2 37 20 36 23 -5
12z"/>
<path d="M1728 2038 c-10 -22 -22 -37 -27 -33 -7 4 -8 0 -5 -10 12 -31 38 -11
46 34 4 25 7 46 5 47 -1 1 -10 -16 -19 -38z"/>
<path d="M1531 1995 c-13 -19 -12 -63 3 -98 12 -30 12 -38 1 -47 -16 -13 -21
-6 -30 42 -7 36 -38 58 -51 37 -3 -6 -15 -7 -26 -3 -13 4 -24 1 -29 -7 -6 -10
-9 -11 -9 -1 0 6 -4 12 -9 12 -6 0 -6 -12 -1 -31 12 -42 7 -49 -60 -88 -32
-19 -71 -44 -87 -57 -28 -22 -28 -22 -9 -43 29 -32 54 -26 138 32 52 37 94 57
133 66 31 7 59 10 62 7 3 -2 -2 -47 -11 -99 -20 -116 -20 -107 3 -107 20 0 36
45 46 136 4 27 10 50 14 52 5 2 6 22 4 46 -3 26 -1 46 6 50 7 5 5 19 -9 47
-11 21 -23 39 -26 39 -3 0 -3 -4 0 -9 3 -5 -3 -11 -14 -14 -30 -8 -35 11 -6
25 14 6 26 15 26 19 0 10 -51 6 -59 -6z m59 -131 c0 -8 -5 -12 -10 -9 -6 4 -8
11 -5 16 9 14 15 11 15 -7z"/>
<path d="M2350 2000 c-8 -5 -10 -10 -5 -10 6 0 17 5 25 10 8 5 11 10 5 10 -5
0 -17 -5 -25 -10z"/>
<path d="M2550 1920 c8 -5 20 -10 25 -10 6 0 3 5 -5 10 -8 5 -19 10 -25 10 -5
0 -3 -5 5 -10z"/>
<path d="M1640 1826 c7 -7 13 -7 20 0 6 6 3 10 -10 10 -13 0 -16 -4 -10 -10z"/>
<path d="M3278 1653 c-184 -508 -268 -745 -268 -753 0 -6 51 -10 129 -10 l130
0 22 70 23 70 150 0 151 0 20 -68 20 -67 129 -3 c71 -1 133 1 137 5 4 4 -63
204 -150 443 l-157 435 -145 3 -145 3 -46 -128z m235 -293 c21 -58 37 -111 37
-117 0 -15 -155 -19 -164 -4 -8 12 75 244 84 234 4 -4 23 -55 43 -113z"/>
<path d="M1671 1734 c0 -11 3 -14 6 -6 3 7 2 16 -1 19 -3 4 -6 -2 -5 -13z"/>
<path d="M1656 1683 c-6 -14 -5 -15 5 -6 7 7 10 15 7 18 -3 3 -9 -2 -12 -12z"/>
<path d="M2708 1662 c-4 -15 -11 -20 -22 -16 -10 4 -16 1 -16 -8 0 -16 -112
-128 -128 -128 -17 0 -132 -122 -138 -146 -3 -12 -12 -25 -20 -28 -10 -4 -14
-26 -14 -88 0 -160 -18 -289 -55 -397 -20 -59 -34 -116 -32 -137 l2 -37 85 8
c47 4 99 6 115 5 79 -9 265 -1 265 12 0 4 -4 9 -10 9 -5 1 -16 2 -22 3 -7 1
-18 -2 -24 -6 -7 -5 -18 -3 -26 5 -10 10 -27 12 -65 7 -29 -3 -50 -3 -47 2 3
4 0 8 -6 8 -6 0 -31 13 -55 30 -24 16 -55 34 -69 40 -24 9 -25 12 -14 30 7 12
25 24 41 27 26 5 27 8 27 68 0 52 9 84 54 197 30 75 63 155 74 179 11 24 23
55 27 69 4 14 19 45 34 70 28 46 56 173 49 220 -3 25 -3 25 -10 2z m-332 -788
c-8 -29 -36 -32 -36 -4 0 12 8 35 17 53 l18 32 3 -29 c2 -15 1 -39 -2 -52z"/>
<path d="M4342 1500 c-34 -8 -102 -50 -102 -62 0 -5 -4 -8 -9 -8 -6 0 -11 15
-13 33 l-3 32 -112 1 -113 1 0 -303 0 -304 115 0 115 0 0 176 c0 177 5 205 39
231 21 16 73 16 95 0 27 -20 36 -81 35 -247 l-1 -155 115 -3 116 -3 3 185 c3
179 4 185 27 210 31 33 89 36 117 5 17 -19 19 -41 22 -210 l3 -190 117 3 117
3 0 220 c0 236 -6 271 -52 326 -72 85 -242 88 -339 5 l-40 -34 -32 34 c-49 51
-139 73 -220 54z"/>
<path d="M5300 1501 c-145 -44 -227 -199 -199 -374 29 -177 186 -282 354 -236
22 6 52 20 68 31 27 19 29 18 31 -12 1 -12 22 -16 114 -18 l112 -3 -2 303 -3
303 -103 3 c-85 2 -103 0 -107 -13 -3 -8 -7 -22 -10 -31 -4 -13 -10 -12 -35
10 -50 41 -150 58 -220 37z m211 -212 c32 -23 55 -84 45 -122 -10 -41 -53 -84
-90 -91 -77 -15 -136 40 -136 125 0 33 6 47 34 75 28 28 42 34 76 34 26 0 53
-8 71 -21z"/>
<path d="M6677 1500 c-88 -23 -176 -91 -211 -165 -66 -138 -26 -303 94 -391
94 -70 258 -84 365 -33 240 113 239 456 -2 566 -61 28 -181 39 -246 23z m169
-224 c28 -28 34 -41 34 -77 0 -122 -134 -172 -201 -77 -17 24 -20 40 -17 82 6
76 36 104 112 105 31 1 45 -6 72 -33z"/>
<path d="M7523 1500 c-35 -8 -70 -28 -97 -56 -20 -20 -30 -13 -31 24 l0 27
-110 0 -110 0 -3 -302 -2 -303 115 0 115 0 0 176 c0 177 5 205 39 231 22 17
72 15 96 -3 18 -14 20 -30 25 -207 l5 -192 113 -3 112 -3 0 224 c0 178 -3 233
-16 270 -32 95 -139 144 -251 117z"/>
<path d="M8062 1495 c-75 -23 -145 -86 -183 -165 -18 -36 -23 -63 -23 -135 0
-78 3 -97 27 -147 31 -64 80 -111 146 -142 69 -31 236 -30 303 3 45 22 118 86
118 103 0 5 -37 27 -83 49 l-83 42 -27 -27 c-21 -21 -35 -26 -77 -26 -44 0
-56 5 -81 29 -16 16 -29 39 -29 50 0 21 4 21 205 21 l205 0 0 55 c0 126 -86
252 -199 288 -63 20 -158 21 -219 2z m176 -180 c41 -48 32 -55 -73 -55 -101 0
-111 5 -77 46 41 51 109 55 150 9z"/>
<path d="M5883 1493 c-9 -3 -13 -32 -13 -94 l0 -89 110 0 c61 0 110 -3 110 -8
0 -4 -10 -18 -23 -32 -12 -14 -45 -54 -72 -90 -27 -36 -55 -72 -62 -80 -71
-87 -73 -92 -73 -151 l0 -59 270 0 270 0 0 95 0 95 -115 0 c-63 0 -115 2 -115
5 0 8 213 279 222 283 4 2 8 30 8 62 0 44 -4 59 -16 64 -19 7 -483 7 -501 -1z"/>
<path d="M2381 1384 c0 -11 3 -14 6 -6 3 7 2 16 -1 19 -3 4 -6 -2 -5 -13z"/>
<path d="M1404 1313 c-65 -100 -124 -254 -124 -324 0 -33 26 -137 46 -185 25
-60 84 -135 169 -214 l48 -45 -23 40 c-87 147 -120 254 -119 380 l1 80 10 -64
c12 -86 81 -271 101 -271 4 0 7 15 7 33 0 17 5 52 11 77 6 25 11 77 11 115 -1
68 -9 102 -70 262 -11 29 -23 71 -27 93 -9 51 -18 57 -41 23z"/>
<path d="M1625 1201 c11 -11 115 -34 122 -27 2 2 -18 9 -44 15 -26 7 -57 14
-68 18 -14 4 -17 2 -10 -6z"/>
<path d="M510 864 c-14 -3 -72 -14 -129 -24 -56 -11 -128 -20 -158 -20 l-55 0
38 -52 c58 -80 152 -176 217 -220 174 -118 333 -141 570 -79 l109 28 -94 31
c-51 17 -145 44 -208 61 -158 41 -239 66 -280 85 -35 16 -35 16 -5 11 63 -10
312 -55 360 -64 129 -26 330 -89 373 -117 56 -37 -16 36 -104 106 -11 8 -44
36 -75 63 -31 26 -61 47 -67 47 -6 0 -12 3 -14 8 -11 26 -147 94 -235 118 -59
16 -198 26 -243 18z"/>
<path d="M5265 724 c-166 -4 -490 -22 -610 -34 -543 -55 -876 -110 -1145 -190
-137 -41 -131 -43 40 -15 184 31 216 36 365 55 209 28 475 56 640 69 77 7 190
16 250 21 150 13 175 14 714 35 447 17 500 17 954 2 265 -9 483 -15 484 -13 4
4 -508 45 -692 56 -184 10 -805 19 -1000 14z"/>
<path d="M3225 628 c-256 -225 -620 -387 -969 -429 -132 -16 -381 -6 -511 20
-144 30 -303 85 -438 152 -94 47 -127 59 -165 59 -57 0 -122 -10 -122 -19 1
-10 144 -98 232 -142 244 -122 503 -182 788 -181 406 2 785 149 1086 420 81
73 196 193 183 191 -2 0 -40 -32 -84 -71z"/>
<path d="M2908 663 c6 -2 18 -2 25 0 6 3 1 5 -13 5 -14 0 -19 -2 -12 -5z"/>
<path d="M7008 643 c6 -2 18 -2 25 0 6 3 1 5 -13 5 -14 0 -19 -2 -12 -5z"/>
<path d="M1997 623 c-2 -4 -12 -30 -21 -58 -9 -27 -34 -77 -56 -109 -22 -33
-39 -64 -37 -70 2 -6 53 -24 113 -40 96 -25 128 -28 264 -29 128 -1 174 2 265
22 61 13 115 27 120 31 6 5 27 11 48 15 20 4 39 11 42 15 3 5 22 14 42 21 36
12 199 101 217 119 6 6 2 23 -9 44 -18 34 -21 35 -65 32 -25 -3 -65 -11 -90
-20 -25 -9 -71 -16 -102 -16 -67 0 -96 -10 -146 -49 -24 -20 -53 -31 -84 -35
-27 -3 -68 -9 -93 -12 -29 -3 -45 -1 -45 5 0 6 5 11 11 11 19 0 139 59 139 68
0 5 10 14 23 20 20 11 19 12 -10 7 -71 -11 -93 -17 -93 -26 0 -5 -6 -9 -13 -9
-7 0 -29 -12 -50 -26 -53 -35 -63 -26 -22 19 26 28 30 37 17 37 -27 -1 -131
-38 -178 -64 -51 -29 -57 -18 -13 21 18 16 38 34 45 41 7 6 17 12 23 12 5 0
13 4 16 10 4 6 -34 9 -103 9 -60 -1 -118 2 -129 5 -12 4 -23 3 -26 -1z"/>
</g>
</svg>